<mxfile host="app.diagrams.net" agent="Mozilla/5.0 (Windows NT 10.0; Win64; x64) AppleWebKit/537.36 (KHTML, like Gecko) Chrome/131.0.0.0 Safari/537.36" version="25.0.3">
  <diagram name="Page-1" id="YQJDp4iH_L7ho882cq_V">
    <mxGraphModel dx="1050" dy="522" grid="1" gridSize="10" guides="1" tooltips="1" connect="1" arrows="1" fold="1" page="1" pageScale="1" pageWidth="827" pageHeight="1169" math="0" shadow="0">
      <root>
        <mxCell id="0" />
        <mxCell id="1" parent="0" />
        <mxCell id="e6EwjJRtmTOYYIVVJL9k-4" value="" style="edgeStyle=orthogonalEdgeStyle;rounded=0;orthogonalLoop=1;jettySize=auto;html=1;" edge="1" parent="1" source="e6EwjJRtmTOYYIVVJL9k-1" target="e6EwjJRtmTOYYIVVJL9k-2">
          <mxGeometry relative="1" as="geometry" />
        </mxCell>
        <mxCell id="e6EwjJRtmTOYYIVVJL9k-1" value="เริ่มต้น" style="ellipse;whiteSpace=wrap;html=1;" vertex="1" parent="1">
          <mxGeometry x="359" y="30" width="110" height="40" as="geometry" />
        </mxCell>
        <mxCell id="e6EwjJRtmTOYYIVVJL9k-5" value="" style="edgeStyle=orthogonalEdgeStyle;rounded=0;orthogonalLoop=1;jettySize=auto;html=1;" edge="1" parent="1" source="e6EwjJRtmTOYYIVVJL9k-2" target="e6EwjJRtmTOYYIVVJL9k-3">
          <mxGeometry relative="1" as="geometry" />
        </mxCell>
        <mxCell id="e6EwjJRtmTOYYIVVJL9k-2" value="รับค่า id" style="shape=parallelogram;perimeter=parallelogramPerimeter;whiteSpace=wrap;html=1;fixedSize=1;" vertex="1" parent="1">
          <mxGeometry x="354" y="110" width="120" height="40" as="geometry" />
        </mxCell>
        <mxCell id="e6EwjJRtmTOYYIVVJL9k-7" value="" style="edgeStyle=orthogonalEdgeStyle;rounded=0;orthogonalLoop=1;jettySize=auto;html=1;" edge="1" parent="1" source="e6EwjJRtmTOYYIVVJL9k-3" target="e6EwjJRtmTOYYIVVJL9k-6">
          <mxGeometry relative="1" as="geometry" />
        </mxCell>
        <mxCell id="e6EwjJRtmTOYYIVVJL9k-3" value="รับค่า hour" style="shape=parallelogram;perimeter=parallelogramPerimeter;whiteSpace=wrap;html=1;fixedSize=1;" vertex="1" parent="1">
          <mxGeometry x="354" y="190" width="120" height="40" as="geometry" />
        </mxCell>
        <mxCell id="e6EwjJRtmTOYYIVVJL9k-9" value="" style="edgeStyle=orthogonalEdgeStyle;rounded=0;orthogonalLoop=1;jettySize=auto;html=1;" edge="1" parent="1" source="e6EwjJRtmTOYYIVVJL9k-6" target="e6EwjJRtmTOYYIVVJL9k-8">
          <mxGeometry relative="1" as="geometry" />
        </mxCell>
        <mxCell id="e6EwjJRtmTOYYIVVJL9k-6" value="รับค่า salary" style="shape=parallelogram;perimeter=parallelogramPerimeter;whiteSpace=wrap;html=1;fixedSize=1;" vertex="1" parent="1">
          <mxGeometry x="354" y="270" width="120" height="40" as="geometry" />
        </mxCell>
        <mxCell id="e6EwjJRtmTOYYIVVJL9k-11" value="" style="edgeStyle=orthogonalEdgeStyle;rounded=0;orthogonalLoop=1;jettySize=auto;html=1;" edge="1" parent="1" source="e6EwjJRtmTOYYIVVJL9k-8" target="e6EwjJRtmTOYYIVVJL9k-10">
          <mxGeometry relative="1" as="geometry" />
        </mxCell>
        <mxCell id="e6EwjJRtmTOYYIVVJL9k-8" value="คำนวณ hour * salary" style="rounded=0;whiteSpace=wrap;html=1;" vertex="1" parent="1">
          <mxGeometry x="354" y="350" width="120" height="30" as="geometry" />
        </mxCell>
        <mxCell id="e6EwjJRtmTOYYIVVJL9k-13" value="" style="edgeStyle=orthogonalEdgeStyle;rounded=0;orthogonalLoop=1;jettySize=auto;html=1;" edge="1" parent="1" source="e6EwjJRtmTOYYIVVJL9k-10" target="e6EwjJRtmTOYYIVVJL9k-12">
          <mxGeometry relative="1" as="geometry" />
        </mxCell>
        <mxCell id="e6EwjJRtmTOYYIVVJL9k-10" value="แสดง id" style="shape=parallelogram;perimeter=parallelogramPerimeter;whiteSpace=wrap;html=1;fixedSize=1;" vertex="1" parent="1">
          <mxGeometry x="354" y="420" width="120" height="40" as="geometry" />
        </mxCell>
        <mxCell id="e6EwjJRtmTOYYIVVJL9k-15" value="" style="edgeStyle=orthogonalEdgeStyle;rounded=0;orthogonalLoop=1;jettySize=auto;html=1;" edge="1" parent="1" source="e6EwjJRtmTOYYIVVJL9k-12" target="e6EwjJRtmTOYYIVVJL9k-14">
          <mxGeometry relative="1" as="geometry" />
        </mxCell>
        <mxCell id="e6EwjJRtmTOYYIVVJL9k-12" value="แสดง&amp;nbsp;hour * salary" style="shape=parallelogram;perimeter=parallelogramPerimeter;whiteSpace=wrap;html=1;fixedSize=1;" vertex="1" parent="1">
          <mxGeometry x="354" y="500" width="120" height="40" as="geometry" />
        </mxCell>
        <mxCell id="e6EwjJRtmTOYYIVVJL9k-14" value="จบ" style="ellipse;whiteSpace=wrap;html=1;" vertex="1" parent="1">
          <mxGeometry x="359" y="584.5" width="110" height="40" as="geometry" />
        </mxCell>
      </root>
    </mxGraphModel>
  </diagram>
</mxfile>
